<?xml version="1.0" encoding="utf-8"?>
<svg width="14" height="14" viewBox="0 0 14 14" fill="#192A3E" fill-opacity="0.6" xmlns="http://www.w3.org/2000/svg" xmlns:bx="https://boxy-svg.com">
  <g clip-path="url(#clip0_1639_6813)">
    <path d="M 12.834 6.922 C 12.834 5.382 12.231 3.9290000000000003 11.138 2.845 C 10.043 1.751 8.59 1.147 7.042 1.147 C 2.485 1.147 -0.279 6.152 2.127 9.981 L 2.266 10.2 L 1.68 12.326 L 3.8680000000000003 11.758 L 4.078 11.883 C 7.943 14.155 12.831 11.374 12.834 6.922 Z M 11.97 2.012 L 11.961 2.035 C 13.277 3.3449999999999998 14 5.089 14 6.941 C 13.998 12.22 8.307 15.527 3.695 13.036 L 0 14 L 0.989 10.406 C 0.379 9.353 0.059000000000000004 8.16 0.059000000000000004 6.938 C 0.062 0.8210000000000001 7.485 -2.324 11.97 2.012 Z" fill-opacity="0.6" fill="#192A3E"/>
    <g style="" transform="matrix(0.685408, 0, 0, 0.685408, 2.20208, 2.202059)">
      <path d="M 7.687 10.856 L 6.85 10.856 C 6.85 10.856 5.003 10.965 3.377 9.316 C 1.604 7.518 0.038 3.949 0.038 3.949 C 0.038 3.949 -0.052000000000000005 3.716 0.046 3.6029999999999998 C 0.15600000000000003 3.476 0.456 3.468 0.456 3.468 L 2.456 3.455 C 2.456 3.455 2.645 3.485 2.779 3.582 C 2.891 3.662 2.954 3.81 2.954 3.81 C 2.954 3.81 3.276 4.606 3.7039999999999997 5.327 C 4.541 6.733 4.93 7.04 5.213 6.89 C 5.627 6.67 5.503 4.902 5.503 4.902 C 5.503 4.902 5.51 4.261 5.295 3.974 C 5.128 3.753 4.813 3.6879999999999997 4.6739999999999995 3.67 C 4.561 3.656 4.746 3.401 4.986 3.287 C 5.346 3.116 5.981 3.105 6.732 3.113 C 7.317 3.1189999999999998 7.486 3.154 7.714 3.208 C 8.404 3.37 8.17 3.996 8.17 5.499 C 8.17 5.979 8.081 6.656 8.437 6.881 C 8.591 6.977 8.966 6.895 9.903 5.345 C 10.348 4.61 10.68 3.747 10.68 3.747 C 10.68 3.747 10.754 3.593 10.866 3.527 C 10.982 3.459 11.139 3.48 11.139 3.48 L 13.243 3.468 C 13.243 3.468 13.876 3.394 13.978 3.6719999999999997 C 14.085 3.964 13.742 4.645 12.882 5.761 C 11.47 7.594 11.312 7.423 12.485 8.483 C 13.605 9.495 13.837 9.988 13.875 10.049 C 14.339 10.798 13.361 10.856 13.361 10.856 L 11.491 10.882 C 11.491 10.882 11.09 10.959 10.561 10.606 C 9.861 10.138 9.202 8.922 8.688 9.081 C 8.167 9.242 8.183 10.336 8.183 10.336 C 8.183 10.336 8.187 10.57 8.068 10.693999999999999 C 7.939 10.829 7.687 10.856 7.687 10.856 Z" fill="#192A3E"/>
    </g>
  </g>
  <defs>
    <clipPath id="clip0_1639_6813">
      <rect width="14" height="14" fill="white"/>
    </clipPath>
    <bx:guide x="5.26716179410556" y="6.08413488530848" angle="0"/>
    <bx:guide x="4.025456850493526" y="6.26673855348672" angle="0"/>
  </defs>
</svg>