<?xml version="1.0" encoding="utf-8"?>
<svg width="14" height="14" viewBox="0 0 14 14" fill="none" xmlns="http://www.w3.org/2000/svg">
  <g clip-path="url(#clip0_1639_6813)">
    <path d="M 11.97 2.012 C 7.485 -2.324 0.062 0.821 0.059 6.938 C 0.059 8.16 0.379 9.353 0.989 10.406 L 0 14 L 3.695 13.036 C 8.307 15.527 13.998 12.22 14 6.941 C 14 5.089 13.277 3.345 11.961 2.035 L 11.97 2.012 Z M 12.834 6.922 C 12.831 11.374 7.943 14.155 4.078 11.883 L 3.868 11.758 L 1.68 12.326 L 2.266 10.2 L 2.127 9.981 C -0.279 6.152 2.485 1.147 7.042 1.147 C 8.59 1.147 10.043 1.751 11.138 2.845 C 12.231 3.929 12.834 5.382 12.834 6.922 Z" fill="#192A3E" fill-opacity="0.6"/>
    <g style="" transform="matrix(0.685408, 0, 0, 0.685408, 2.20208, 2.202059)">
      <path d="M 7.687 10.856 C 7.687 10.856 7.939 10.829 8.068 10.694 C 8.187 10.57 8.183 10.336 8.183 10.336 C 8.183 10.336 8.167 9.242 8.688 9.081 C 9.202 8.922 9.861 10.138 10.561 10.606 C 11.09 10.959 11.491 10.882 11.491 10.882 L 13.361 10.856 C 13.361 10.856 14.339 10.798 13.875 10.049 C 13.837 9.988 13.605 9.495 12.485 8.483 C 11.312 7.423 11.47 7.594 12.882 5.761 C 13.742 4.645 14.085 3.964 13.978 3.672 C 13.876 3.394 13.243 3.468 13.243 3.468 L 11.139 3.48 C 11.139 3.48 10.982 3.459 10.866 3.527 C 10.754 3.593 10.68 3.747 10.68 3.747 C 10.68 3.747 10.348 4.61 9.903 5.345 C 8.966 6.895 8.591 6.977 8.437 6.881 C 8.081 6.656 8.17 5.979 8.17 5.499 C 8.17 3.996 8.404 3.37 7.714 3.208 C 7.486 3.154 7.317 3.119 6.732 3.113 C 5.981 3.105 5.346 3.116 4.986 3.287 C 4.746 3.401 4.561 3.656 4.674 3.67 C 4.813 3.688 5.128 3.753 5.295 3.974 C 5.51 4.261 5.503 4.902 5.503 4.902 C 5.503 4.902 5.627 6.67 5.213 6.89 C 4.93 7.04 4.541 6.733 3.704 5.327 C 3.276 4.606 2.954 3.81 2.954 3.81 C 2.954 3.81 2.891 3.662 2.779 3.582 C 2.645 3.485 2.456 3.455 2.456 3.455 L 0.456 3.468 C 0.456 3.468 0.156 3.476 0.046 3.603 C -0.052 3.716 0.038 3.949 0.038 3.949 C 0.038 3.949 1.604 7.518 3.377 9.316 C 5.003 10.965 6.85 10.856 6.85 10.856 L 7.687 10.856 Z" fill="#5E6A78"/>
    </g>
  </g>
  <defs>
    <clipPath id="clip0_1639_6813">
      <rect width="14" height="14" fill="white"/>
    </clipPath>
  </defs>
</svg>